<svg width="375" height="588" viewBox="0 0 375 588" fill="none" xmlns="http://www.w3.org/2000/svg">
<rect width="26.4618" height="4.7339" transform="matrix(0.757375 0.65298 0.65298 -0.757375 124.184 47.5854)" fill="#6070FF"/>
<ellipse cx="129.305" cy="59.211" rx="5.5" ry="5" transform="rotate(52.9708 129.305 59.211)" fill="#CBCDFF"/>
<rect x="188.824" y="549" width="68.0631" height="12.1762" transform="rotate(23.34 188.824 549)" fill="#EBEBFF"/>
<circle cx="244" cy="563.096" r="10" fill="#6070FF"/>
<path d="M331.906 465.499C333.425 463.689 334.497 461.547 335.035 459.246C335.572 456.945 335.561 454.549 335 452.254C334.44 449.958 333.347 447.826 331.809 446.032C330.272 444.237 328.334 442.829 326.151 441.923C323.969 441.017 321.603 440.637 319.247 440.815C316.89 440.993 314.609 441.723 312.587 442.947C310.566 444.171 308.86 445.853 307.61 447.858C306.359 449.864 305.599 452.135 305.389 454.489L311.84 455.063C311.959 453.722 312.392 452.428 313.105 451.285C313.817 450.143 314.789 449.184 315.94 448.487C317.092 447.79 318.392 447.374 319.734 447.273C321.077 447.171 322.424 447.388 323.668 447.904C324.911 448.42 326.015 449.222 326.891 450.244C327.767 451.267 328.39 452.481 328.709 453.789C329.028 455.097 329.035 456.462 328.729 457.773C328.422 459.084 327.812 460.304 326.946 461.335L331.906 465.499Z" fill="#EBEBFF"/>
<path d="M315.497 429C315.278 432.194 316.337 435.344 318.441 437.757C320.545 440.17 323.521 441.649 326.715 441.867C329.909 442.086 333.059 441.027 335.472 438.923C337.885 436.82 339.364 433.843 339.583 430.649L315.497 429Z" fill="#6070FF"/>
<rect x="-37" y="37.4871" width="51.9898" height="9.30073" transform="rotate(-46.1415 -37 37.4871)" fill="#EBEBFF"/>
<path d="M-14.8085 24.642C-16.8134 29.3378 -16.8708 34.6377 -14.968 39.3758C-13.0653 44.1139 -9.35827 47.902 -4.66249 49.9069C0.0332901 51.9118 5.33318 51.9692 10.0713 50.0664C14.8093 48.1636 18.5975 44.4566 20.6024 39.7609L-14.8085 24.642Z" fill="#6070FF"/>
<circle cx="218.5" cy="13.5" r="7" fill="white" stroke="#CBCDFF"/>
<circle cx="300.5" cy="216.5" r="5" fill="white" stroke="#CBCDFF"/>
<circle cx="57.5" cy="548.5" r="7" fill="white" stroke="#CBCDFF"/>
<path d="M418.241 74.9701C414.195 67.7876 408.514 61.659 401.659 57.0803C394.803 52.5017 386.966 49.6018 378.782 48.6154C370.597 47.6291 362.295 48.584 354.548 51.4028C346.802 54.2216 339.827 58.8252 334.191 64.8407C328.554 70.8562 324.413 78.1145 322.103 86.0281C319.793 93.9416 319.379 102.288 320.895 110.391C322.411 118.494 325.813 126.127 330.828 132.67C335.842 139.214 342.326 144.485 349.756 148.056L359.543 127.695C355.31 125.661 351.616 122.658 348.759 118.93C345.903 115.202 343.964 110.854 343.101 106.238C342.237 101.621 342.473 96.8662 343.789 92.3579C345.105 87.8496 347.464 83.7145 350.675 80.2874C353.886 76.8604 357.86 74.2378 362.273 72.6319C366.686 71.026 371.416 70.482 376.079 71.044C380.741 71.6059 385.206 73.258 389.112 75.8664C393.017 78.4748 396.254 81.9663 398.559 86.0582L418.241 74.9701Z" fill="#6070FF"/>
<rect x="291" y="61.79" width="95.5804" height="22.021" transform="rotate(-30 291 61.79)" fill="#EBEBFF"/>
</svg>
